<?xml version="1.0" encoding="UTF-8"?>
<svg version="1.1" xmlns="http://www.w3.org/2000/svg" width="800" height="800">
<path d="M0 0 C0.33 3.96 0.66 7.92 1 12 C-0.32330322 12.09704224 -0.32330322 12.09704224 -1.67333984 12.19604492 C-97.02401679 19.35625755 -196.34065298 46.84516249 -262.1875 120.62890625 C-272.76552052 133.10075825 -281.59757706 146.43701883 -289 161 C-289.33080566 161.63856934 -289.66161133 162.27713867 -290.00244141 162.93505859 C-297.77614477 178.06495184 -302.47553557 194.21419544 -305 211 C-305.13148438 211.82886719 -305.26296875 212.65773437 -305.3984375 213.51171875 C-307.98967805 233.57632461 -304.64037831 253.31438559 -301 273 C-300.19296631 273.03963867 -299.38593262 273.07927734 -298.55444336 273.12011719 C-211.13475825 277.58011663 -123.18702335 301.28724501 -54 357 C-52.66195312 358.04994141 -52.66195312 358.04994141 -51.296875 359.12109375 C-43.12091341 365.63556607 -35.55704408 372.78840789 -28 380 C-27.20207031 380.75539063 -26.40414063 381.51078125 -25.58203125 382.2890625 C-20.23894153 387.47217947 -15.63062106 393.1816547 -11 399 C-10.13647886 400.05035332 -9.27186565 401.09980963 -8.40625 402.1484375 C25.58598315 443.7875378 42.61764468 496.41923306 37.50390625 550.08203125 C33.09155558 588.03555659 17.69589387 624.1053658 -6 654 C-6.96486328 655.25296875 -6.96486328 655.25296875 -7.94921875 656.53125 C-20.65150424 672.8149101 -35.60838269 688.42947494 -52 701 C-53.28575417 702.01356488 -54.57086124 703.02795096 -55.85546875 704.04296875 C-115.60101918 750.89309627 -190.9359441 776.50735386 -266 784 C-267.00691895 784.10296387 -268.01383789 784.20592773 -269.05126953 784.31201172 C-284.72755291 785.87053023 -300.25348979 786.24122314 -316 786 C-316 781.38 -316 776.76 -316 772 C-314.26621094 771.96261719 -312.53242188 771.92523437 -310.74609375 771.88671875 C-209.92168062 769.31217744 -107.98216629 738.03476501 -36.7109375 663.82470703 C-32.88516869 659.74454206 -29.41341873 655.43031957 -26 651 C-24.84177734 649.58460938 -24.84177734 649.58460938 -23.66015625 648.140625 C8.07219235 608.63811205 22.81295955 558.75011218 17.74609375 508.48095703 C15.43408039 488.35260125 8.85785846 469.56768077 1 451 C0.04806763 450.97812622 0.04806763 450.97812622 -0.9230957 450.95581055 C-82.39267348 448.91094221 -164.09604623 432.17298843 -257.734375 365.08203125 C-259.80892036 363.1755956 -261.92265931 361.3323439 -264.0625 359.5 C-272.22577884 352.35303298 -279.34039612 344.55764585 -286 336 C-286.63010986 335.20045898 -286.63010986 335.20045898 -287.27294922 334.38476562 C-297.7825579 320.96426422 -307.27572291 306.05731852 -313.1328125 289.984375 C-313.82640894 287.81991981 -313.82640894 287.81991981 -316 287 C-316.7109375 284.47265625 -316.7109375 284.47265625 -317.375 281.0625 C-317.75398437 279.17337891 -317.75398437 279.17337891 -318.140625 277.24609375 C-318.34461914 276.22104736 -318.34461914 276.22104736 -318.55273438 275.17529297 C-319.02216209 272.89221387 -319.52878877 270.62017087 -320.046875 268.34765625 C-320.22557129 267.56318115 -320.40426758 266.77870605 -320.58837891 265.97045898 C-320.93745174 264.44473437 -321.28857919 262.91947788 -321.64208984 261.39477539 C-326.20341298 241.24098895 -326.03247784 217.06208821 -321 197 C-320.80132324 196.18063965 -320.60264648 195.3612793 -320.39794922 194.51708984 C-311.4282384 158.32245899 -291.3888235 128.78011647 -266 102 C-264.93265625 100.86884766 -264.93265625 100.86884766 -263.84375 99.71484375 C-259.46036942 95.19672811 -254.74170167 91.20923349 -249.83203125 87.2734375 C-248.02124657 85.81981449 -246.22524711 84.34745162 -244.44921875 82.8515625 C-229.74203026 70.48770449 -213.7008101 60.43173043 -197 51 C-196.21431641 50.55414551 -195.42863281 50.10829102 -194.61914062 49.64892578 C-137.88966724 17.76617724 -65.19390013 -1.60972593 0 0 Z M-296 287 C-281.87393389 318.46191358 -260.6932101 346.08734392 -233 367 C-232.38382813 367.47083008 -231.76765625 367.94166016 -231.1328125 368.42675781 C-175.48251098 410.72418526 -104.14998091 432.97768096 -34.80078125 437.00537109 C-32.73651311 437.12578674 -30.67299289 437.25567219 -28.609375 437.38671875 C-21.06614108 437.85150932 -13.55815396 438.1255044 -6 438 C-7.59330025 433.85531367 -9.58553972 430.21535483 -12 426.5 C-12.39445312 425.89124023 -12.78890625 425.28248047 -13.1953125 424.65527344 C-19.37128995 415.2602134 -26.28975068 406.55090022 -33.90625 398.27734375 C-35.87590455 396.13497695 -37.78753589 393.95412503 -39.6875 391.75 C-42.66448893 388.3437708 -45.68593078 385.08285509 -49 382 C-49.66 382 -50.32 382 -51 382 C-51 381.34 -51 380.68 -51 380 C-52.52837269 378.60400604 -54.12650099 377.28412351 -55.75 376 C-56.76707031 375.18917969 -57.78414062 374.37835938 -58.83203125 373.54296875 C-59.3626416 373.12063965 -59.89325195 372.69831055 -60.43994141 372.26318359 C-62.82038904 370.33572881 -65.11885689 368.31361139 -67.4375 366.3125 C-81.42232576 354.68851467 -96.64789434 345.03020728 -112.58349609 336.32568359 C-114.76261893 335.13022623 -116.92378973 333.90837578 -119.08203125 332.67578125 C-172.56794867 302.62878929 -235.52379795 290.72913147 -296 287 Z " fill="#2D9D5D" transform="translate(547,7)"/>
<path d="M0 0 C23.5937607 35.39064104 27.95940416 87.35656449 20 128 C13.49352775 160.17190878 -0.62175213 190.29089323 -21 216 C-21.64324219 216.8353125 -22.28648437 217.670625 -22.94921875 218.53125 C-35.65150424 234.8149101 -50.60838269 250.42947494 -67 263 C-68.28575417 264.01356488 -69.57086124 265.02795096 -70.85546875 266.04296875 C-130.60101918 312.89309627 -205.9359441 338.50735386 -281 346 C-282.51037842 346.1544458 -282.51037842 346.1544458 -284.05126953 346.31201172 C-299.72755291 347.87053023 -315.25348979 348.24122314 -331 348 C-331 343.38 -331 338.76 -331 334 C-329.26621094 333.96261719 -327.53242188 333.92523437 -325.74609375 333.88671875 C-224.92168062 331.31217744 -122.98216629 300.03476501 -51.7109375 225.82470703 C-47.88516869 221.74454206 -44.41341873 217.43031957 -41 213 C-40.22785156 212.05640625 -39.45570313 211.1128125 -38.66015625 210.140625 C-6.92780765 170.63811205 7.81295955 120.75011218 2.74609375 70.48095703 C0.40296617 50.08172128 -6.42733808 30.97009471 -14 12 C-9.38 11.67 -4.76 11.34 0 11 C0 7.37 0 3.74 0 0 Z " fill="#2E6FEB" transform="translate(562,445)"/>
<path d="M0 0 C88.30773521 4.33736705 177.06034679 27.68119085 247 84 C247.89203125 84.69996094 248.7840625 85.39992188 249.703125 86.12109375 C257.87908659 92.63556607 265.44295592 99.78840789 273 107 C273.79792969 107.75539063 274.59585937 108.51078125 275.41796875 109.2890625 C280.76105847 114.47217947 285.36937894 120.1816547 290 126 C290.86352114 127.05035332 291.72813435 128.09980963 292.59375 129.1484375 C301.581557 140.15902997 309.89495828 152.12991205 316 165 C298.21419273 167.37192752 298.21419273 167.37192752 293.26708984 163.72119141 C290.39235434 160.22843458 288.69481913 156.12547741 286.93164062 151.9921875 C285.50558145 148.9427528 283.55387646 146.40467025 281.5 143.75 C280.75105469 142.78191406 280.00210937 141.81382812 279.23046875 140.81640625 C278.49441406 139.88699219 277.75835938 138.95757812 277 138 C276.31550781 137.12214844 275.63101562 136.24429688 274.92578125 135.33984375 C270.41223014 129.67496167 265.61138497 124.30729963 260.6875 119 C259.78898315 118.02873169 259.78898315 118.02873169 258.87231445 117.0378418 C256.53186517 114.54265751 254.3249638 112.2435916 251.58203125 110.1875 C251.05996094 109.795625 250.53789062 109.40375 250 109 C250 108.34 250 107.68 250 107 C249.42765625 106.74992187 248.8553125 106.49984375 248.265625 106.2421875 C245.67936022 104.82420095 243.88388587 103.16189106 241.75 101.125 C225.75949077 86.49638436 207.13810976 74.8594596 188.30078125 64.29199219 C186.85201761 63.47844622 185.40624366 62.65953031 183.96484375 61.83300781 C133.60198339 33.01425994 72.72819416 19.16221146 15.33764648 15.73364258 C14.29294189 15.66556396 13.2482373 15.59748535 12.171875 15.52734375 C11.2447168 15.47312256 10.31755859 15.41890137 9.36230469 15.36303711 C7 15 7 15 4 13 C2.83203125 10.46875 2.83203125 10.46875 1.8125 7.5 C1.46832031 6.5203125 1.12414062 5.540625 0.76953125 4.53125 C0 2 0 2 0 0 Z " fill="#2E6FEB" transform="translate(246,280)"/>
</svg>
